<?xml version="1.0" encoding="utf-8"?>
<!-- Generator: Adobe Illustrator 16.0.0, SVG Export Plug-In . SVG Version: 6.00 Build 0)  -->
<!DOCTYPE svg PUBLIC "-//W3C//DTD SVG 1.1//EN" "http://www.w3.org/Graphics/SVG/1.1/DTD/svg11.dtd">
<svg version="1.1" id="Layer_1" xmlns="http://www.w3.org/2000/svg" xmlns:xlink="http://www.w3.org/1999/xlink" x="0px" y="0px"
	 width="960px" height="664.029px" viewBox="0 0 960 664.029" enable-background="new 0 0 960 664.029" xml:space="preserve">
<g>
	<path fill="#B6335A" d="M955.199,463.94c-3.771-4.498-9.035-6.947-14.873-6.947c-2.381,0-4.849,0.432-7.57,1.34l23.469-116.748
		c0.187-0.938,0.156-1.883,0.156-2.844v-4.111c0-0.522,0.135-1.031,0.148-1.522c0.104-4.581,0.379-14.116-8.81-20.899
		c-4.562-3.36-10.162-6.924-19.506-6.924c-8.471,0-16.813,2.059-26.305,6.476c-9.008,4.201-16.189,9.436-21.974,16.006
		c-0.391,0.44-0.743,0.904-1.069,1.384c-0.597-5.188-2.627-11.817-9.578-16.944c-6.418-4.726-12.887-6.92-20.369-6.92
		c-8.51,0-16.896,2.059-26.391,6.476c-9.062,4.224-16.261,9.462-22.017,16.021c-3.272,3.729-4.391,8.886-2.951,13.636
		c0.949,3.127,2.92,5.785,5.521,7.604l-10.769,49.897c-3.233-5.371-7.823-10.061-13.694-13.934
		c-9.816-6.455-21.375-9.726-34.369-9.726c-22.424,0-43.252,8.025-61.916,23.845c-7.604,6.44-13.732,13.436-18.377,20.938
		c0.326-2.574,0.49-5.072,0.49-7.492c0-11.781-4.705-21.582-13.615-28.34c-3.396-2.58-7.096-4.568-11.047-6.041
		c1.668-6.979,3.395-14.039,5.207-21.133l0.062-0.258l0.06-0.252c0.379-1.756,0.772-3.566,1.184-5.449
		c6.103,2.734,12.937,4.115,20.363,4.115c15.293,0,36.877-5.761,54.225-33.213c11.455-18.144,16.978-37.383,16.978-57.194v-89.497
		c0-14.725-3.918-27.567-12.224-38.171c-6.123-7.826-17.528-17.152-37.783-17.152c-4.44,0-8.633,0.448-12.672,1.34
		c-1.5-6.297-5.123-11.616-10.637-15.357c-5.838-3.97-12.644-5.979-20.25-5.979c-4.482,0-8.908,0.54-13.174,1.608
		c-3.689,0.916-7.629,2.184-11.705,3.764l-0.857,0.336l-0.812,0.441l-9.701,5.284l-0.473,0.258l-0.457,0.292l-4.996,3.229
		l-0.416,0.27l-0.396,0.294l-2.352,1.76l-2.349,1.759l-14.823,11.091l14.436,11.594l0.623,0.498
		c-0.002,0.021-0.008,0.04-0.012,0.061c-0.279,1.479-0.609,3.261-0.986,5.315l-2.344,10.261c-1.271,0.347-2.555,0.733-3.832,1.137
		c-0.312-11.11-4.867-20.52-13.293-27.233c-7.867-6.265-17.308-9.445-28.058-9.445c-9.682,0-19.006,2.021-27.719,6.004
		c-3.403,1.553-6.733,3.355-9.979,5.396c-7.504-7.443-17.615-11.399-29.634-11.399c-9.566,0-18.927,2.429-27.821,7.22
		c-1.087,0.555-2.604,1.402-5.113,2.997c-0.417-0.491-0.848-0.968-1.293-1.429c-3.874-4.007-10.979-8.788-22.812-8.788
		c-8.725,0-17.668,2.083-26.588,6.188c-6.991,3.218-13.284,7.194-18.763,11.854c-1.284-2.988-2.963-5.411-4.709-7.347
		c0.79-0.545,1.572-1.108,2.342-1.7c10.228-7.822,15.631-18.371,15.631-30.511c0-9.896-4.15-18.447-12.002-24.734
		c-7.002-5.602-15.113-8.439-24.111-8.439c-11.224,0-21.575,3.563-30.771,10.597c-3.905,2.983-7.104,6.369-9.572,10.086
		c-3.528-7.582-8.069-14.174-13.541-19.646c-1.416-1.416-2.85-2.766-4.294-4.05c5.125-1.505,10.021-4.128,14.635-7.854
		c10.731-8.675,12.984-18.854,12.984-25.868c0-10.77-5.318-19.853-14.973-25.578l-0.101-0.062l-0.1-0.056
		c-6.294-3.596-13.934-5.419-22.705-5.419c-16.853,0-32.581,5.027-46.749,14.942c-8.718,6.009-17.771,14.659-27.489,26.307
		c-11.112,0.283-21.637,1.259-31.365,2.911c-11.847,2.012-24.027,5.374-36.207,9.989l-0.089,0.033l-0.09,0.037
		c-15.595,6.149-28.734,14.277-39.059,24.154c-14.074,13.576-21.189,28.924-21.189,45.653c0,7.51,1.656,14.485,4.873,20.703
		c-18.641,2.914-36.328,10.835-50.133,22.71C21.253,183.402,1.383,202.526,0.624,227.54c-0.97,31.967-0.68,69.268,0,90.396
		c0.595,18.481,11.429,35.801,33.122,52.942c14.648,11.529,35.734,18.127,57.875,18.127c14.458,0,29.479-2.557,42.306-7.188
		c0.323-0.117,0.636-0.254,0.956-0.371c0.236,1.655,0.474,3.336,0.716,5.067c2.414,17.207,5.417,38.623,10.04,52.519
		c4.299,12.938,19.84,22.328,36.952,22.328c0.453,0,0.904-0.007,1.357-0.017c11.074-0.321,21.013-3.473,29.537-9.373
		c8.677-6.016,15.485-14.362,20.238-24.821c1.825-3.99,3.498-8.732,4.969-14.097c1.022-4.264,2.091-8.771,3.222-13.567
		c0.196,0.698,0.329,1.325,0.329,1.811c0,0.168,0.028,0.521,0.091,1.051c0.182,1.529,0.668,5.605,0.178,12.162
		c-0.114,1.519,0.007,3.027,0.136,4.629c0.091,1.162,0.188,2.361,0.188,3.58c0,2.39,0.676,4.144,1.242,5.197l0.084,0.154
		l0.099,0.143c1.407,1.99,3.578,3.133,5.957,3.133c4.336,0,8.796-4.498,14.46-14.571c2.168-3.914,4.75-9.23,7.683-15.83
		c0.481-1.08,0.955-2.131,1.417-3.14c-0.819,3.146-1.498,6.252-2.017,9.234c-0.726,4.188-1.093,8.338-1.093,12.324
		c0,6.09,1.123,11.326,3.333,15.555c2.988,5.715,7.716,8.73,13.677,8.73c9.105,0,20.701-9.543,27.966-16.529
		c-0.199,0.99-0.391,1.942-0.573,2.871c-11.473,12.51-17.492,27.639-17.492,44.303c0,6.908,3.679,22.697,5.922,28.451
		c11.138,29.336,39.822,104.916,42.306,111.59c3.356,11.506,13.996,24.844,26.724,33.43c16.049,10.802,35.187,16.269,56.896,16.269
		c11.543,0,22.395-1.353,32.246-4.021c9.836-2.67,20.12-7.123,30.567-13.229c5.711-3.344,10.896-7.496,15.53-12.441
		c0.607,0.465,1.261,0.879,1.949,1.25c2.127,1.131,4.447,1.688,6.748,1.688c3.32,0,6.609-1.156,9.244-3.369
		c1.019-0.506,5.25-2.269,18.144-4.463c11.024-1.756,19.532-7.438,24.635-16.14c1.797,3.312,4.119,6.31,6.936,8.939
		c7.25,6.758,16.08,10.328,25.547,10.328c9.931,0,20.369-3.646,31.925-11.131c3.143-2.029,5.946-4.14,8.405-6.318
		c0.082,0.096,0.162,0.186,0.244,0.279c10.388,12.002,24.424,18.348,40.584,18.348c6.869,0,13.763-1.223,20.484-3.641
		c6.112-2.203,12.184-5.156,18.074-8.785c2.93-1.799,5.875-3.961,8.813-6.459c1.486,2.498,3.271,4.799,5.338,6.873
		c7.051,7.09,16.062,10.834,26.047,10.834c9.859,0,20.238-3.504,31.736-10.719c1.367-0.854,2.674-1.729,3.92-2.619
		c0.76,0.932,1.523,1.766,2.269,2.508c7.045,7.08,16.055,10.83,26.041,10.83c9.834,0,20.528-3.613,31.797-10.748
		c18.453-11.68,38.418-38.639,60.721-70.062c31.18-43.914,41.521-61.791,42.553-73.561
		C960.246,474.671,959.678,469.327,955.199,463.94z M882.531,349.03l-16.002,74.155c-1.281-0.993-2.713-1.963-4.324-2.813
		l16.045-76.021C879.312,346.216,880.777,347.812,882.531,349.03z"/>
	<g>
		<path fill="#FE4B75" d="M310.841,31.111c0,5.688-2.551,10.583-7.646,14.698c-5.1,4.119-10.491,6.178-16.175,6.178
			c-1.761,0-2.988-0.246-3.673-0.737c-0.689-0.488-1.228-1.221-1.616-2.206c-0.395-0.977-0.69-1.765-0.882-2.353
			c-0.981-3.53-3.433-5.292-7.351-5.292c-4.706,0-9.312,1.572-13.821,4.708c-4.512,3.133-8.333,6.957-11.466,11.464
			c9.602,1.962,17.688,4.46,24.255,7.499c6.564,3.039,12.986,7.693,19.26,13.965c5.294,5.292,9.457,11.906,12.497,19.847
			c3.037,7.94,4.558,15.833,4.558,23.669c0,17.644-5.292,33.52-15.877,47.634c-11.567,15.487-25.978,23.229-43.223,23.229
			c-9.806,0-18.081-2.989-24.845-8.969c-6.764-5.978-10.143-13.769-10.143-23.372c0-5.489,1.417-11.469,4.261-17.937
			c2.839-6.47,6.221-9.704,10.142-9.704c0.589,0,1.274,0.197,2.059,0.589c0.782,0.396,1.471,0.785,2.059,1.175
			c0,1.961,0.782,3.923,2.355,5.884c1.566,1.96,3.426,2.941,5.585,2.941c5.881,0,10.777-3.237,14.7-9.704
			c3.331-5.485,4.999-11.367,4.999-17.644c0-8.035-2.646-15.041-7.938-21.023c-5.292-5.975-12.057-9.851-20.29-11.612
			c-2.746,5.696-5.981,13.892-9.699,24.586c-3.729,10.699-6.374,19.286-7.94,25.767l-14.995,60.655
			c-1.376,5.302-2.701,9.575-3.968,12.813c-1.279,3.238-4.464,10.062-9.561,20.463c-5.88,11.979-14.309,22.769-25.285,32.388
			c-8.628,7.854-18.772,13.889-30.432,18.108c-11.665,4.219-23.572,6.333-35.725,6.333c-17.641,0-32.835-5.011-45.574-15.035
			c-13.922-10.999-20.876-25.044-20.876-42.139c0-19.449,7.936-36.002,23.817-49.655c15.877-13.653,33.712-20.482,53.514-20.482
			c5.683,0,9.896,0.879,12.642,2.644c2.745,1.764,4.117,4.115,4.117,7.06c0,1.372-0.543,2.746-1.617,4.112
			c-1.08,1.378-1.91,2.354-2.5,2.942c-1.961,2.353-2.94,4.703-2.94,7.056c0,4.119,1.762,7.452,5.292,9.999
			c3.527,2.55,7.448,3.824,11.761,3.824c11.172,0,20.971-5.684,29.401-17.057c5.096-6.858,10.486-17.54,16.174-32.048l5.881-15.583
			l6.467-15.583l6.764-15.585l7.056-15.581l-5.294,1.177l-4.998,1.468c-1.174,0.396-2.793,0.986-4.851,1.764
			c-2.057,0.788-3.777,1.569-5.145,2.353c-3.727,1.763-6.958,4.218-9.706,7.352c-2.744,3.139-4.115,6.668-4.115,10.585
			c0,3.526,1.371,5.837,4.115,6.909c2.746,1.08,4.604,1.964,5.588,2.645c0.978,0.693,1.47,1.816,1.47,3.384
			c0,8.428-5.689,16.464-17.052,24.106c-10.394,7.058-20.289,10.587-29.698,10.587c-9.408,0-17.641-3.039-24.698-9.114
			c-7.056-6.075-10.584-13.82-10.584-23.229c0-12.742,5.585-24.503,16.759-35.283c9.013-8.623,20.48-15.682,34.4-21.17
			c11.366-4.31,22.54-7.397,33.52-9.26c10.973-1.861,22.932-2.795,35.868-2.795c10.39-13.13,19.999-22.735,28.817-28.812
			c11.764-8.233,24.597-12.351,38.519-12.351c6.271,0,11.466,1.176,15.584,3.527C308.192,21.017,310.841,25.427,310.841,31.111z"/>
		<path fill="#FE4B75" d="M380.749,223.629c0,7.84-6.278,14.994-18.818,21.468c-10.983,5.683-20.876,8.523-29.695,8.523
			c-7.258,0-13.628-2.16-19.112-6.469c-5.491-4.312-8.235-10.095-8.235-17.346l0.293-4.706l12.351-58.804v-1.181
			c0-4.507-2.253-7.938-6.765-10.289c4.705-4.705,10.733-8.771,18.085-12.204c7.351-3.428,14.262-5.145,20.729-5.145
			c4.896,0,8.966,1.329,12.202,3.984c3.234,2.655,4.85,6.444,4.85,11.359c0,2.364-0.786,7.178-2.352,14.456
			c-0.197,1.377-1.229,5.807-3.087,13.278c-1.866,7.477-3.189,13.081-3.97,16.818c-1.573,7.476-2.353,12.395-2.353,14.751
			c0,2.951,0.735,5.407,2.205,7.375c1.468,1.966,3.575,2.945,6.324,2.945c1.368,0,3.426-0.63,6.176-1.908
			c2.74-1.273,4.894-1.911,6.466-1.911c1.178,0,2.252,0.49,3.235,1.468C380.257,221.084,380.749,222.256,380.749,223.629z
			 M377.515,101.017c0,7.646-3.334,14.017-9.997,19.111c-6.668,5.099-14.019,7.646-22.052,7.646c-5.88,0-10.979-1.662-15.29-4.995
			c-4.312-3.331-6.469-7.94-6.469-13.823c0-7.644,3.331-14.012,9.998-19.112c6.662-5.09,14.015-7.641,22.052-7.641
			c5.684,0,10.732,1.766,15.14,5.292C375.307,91.024,377.515,95.531,377.515,101.017z"/>
		<path fill="#FE4B75" d="M590.959,224.51c0,6.668-5.836,13.232-17.494,19.697c-11.664,6.474-22.104,9.7-31.313,9.7
			c-7.451,0-13.923-2.168-19.406-6.515c-5.49-4.346-8.232-10.172-8.232-17.486c0-3.351,1.476-10.562,4.412-21.629
			c2.941-11.061,4.408-18.174,4.408-21.334c0-5.927-2.744-8.891-8.234-8.891c-5.094,0-9.014,2.97-11.756,8.892
			c-0.981,2.372-2.459,7.608-4.412,15.709l-6.467,29.646c-1.178,6.129-3.779,10.724-7.795,13.783
			c-4.021,3.066-9.165,4.598-15.435,4.598c-7.646,0-13.137,0.387-16.47,1.166c-3.333,0.766-7.644,3.001-12.938,6.699l14.998-68.74
			l0.292-4.119c0-5.087-2.549-7.633-7.646-7.633c-5.099,0-9.114,2.941-12.056,8.819c-1.373,2.938-2.842,8.233-4.407,15.875
			c-0.981,6.079-2.208,11.958-3.678,17.644c-1.468,5.687-2.5,9.704-3.087,12.053c-1.573,7.06-3.922,11.666-7.057,13.821
			c-3.14,2.16-8.432,3.73-15.878,4.704h-14.992c-2.552,0-5.197,0.777-7.94,2.324c-1.178,0.778-3.433,2.528-6.762,5.25l19.405-86.815
			l0.586-7.083c0-5.117-2.158-8.664-6.469-10.629c5.094-4.922,11.17-9.007,18.229-12.255c7.057-3.248,13.917-4.874,20.585-4.874
			c5.483,0,9.65,1.471,12.493,4.411c2.841,2.938,4.56,7.348,5.146,13.23c9.41-6.661,15.483-10.682,18.231-12.052
			c6.854-3.725,13.914-5.587,21.168-5.587c12.737,0,21.467,5.878,26.17,17.64c6.069-5.485,12.541-9.798,19.406-12.935
			c6.856-3.136,14.112-4.704,21.754-4.704c7.448,0,13.823,2.107,19.11,6.319c5.3,4.218,7.939,9.953,7.939,17.2
			c0,3.337-0.588,7.745-1.767,13.232c-0.393,1.959-1.467,6.277-3.229,12.938c-0.982,4.513-2.057,9.508-3.234,14.993
			c-1.176,5.489-1.768,9.216-1.768,11.172c0,2.749,0.738,5.049,2.211,6.908c1.465,1.866,3.57,2.792,6.32,2.792
			c1.563,0,3.528-0.586,5.877-1.76c2.348-1.176,4.41-1.765,6.176-1.765c1.367,0,2.543,0.589,3.529,1.765
			C590.469,221.861,590.959,223.141,590.959,224.51z"/>
		<path fill="#FE4B75" d="M723.408,175.284c0,17.493-4.902,34.001-14.701,49.523c-11.176,17.682-25.193,26.527-42.047,26.527
			c-6.078,0-11.422-1.207-16.021-3.598c-4.61-2.405-9.069-6.005-13.381-10.811c-0.785,2.748-1.77,6.816-2.94,12.207
			c-1.181,5.385-2.256,10.331-3.232,14.844c-2.354,9.213-4.608,18.423-6.768,27.635c-1.963,5.493-4.9,9.121-8.82,10.886
			c-3.92,1.76-9.113,2.648-15.586,2.648c-7.838,0-13.082,0.334-15.728,1.017c-2.643,0.68-6.518,3.252-11.612,7.727l37.34-163.182
			c0.393-2.149,0.732-4.003,1.031-5.571c0.291-1.561,0.438-2.936,0.438-4.112c0-1.955-0.393-3.716-1.178-5.282l-2.354-2.641
			l-1.179-1.172l-1.469-1.178l2.353-1.758l2.352-1.761l5-3.229l9.703-5.283c3.524-1.367,6.856-2.443,9.998-3.224
			c3.129-0.782,6.367-1.178,9.701-1.178c4.702,0,8.771,1.167,12.202,3.495c3.431,2.33,5.144,5.726,5.144,10.192
			c0,2.138-0.49,5.243-1.473,9.322c-0.98,4.075-1.466,6.602-1.466,7.568c4.896-3.529,9.603-6.173,14.111-7.938
			c4.508-1.764,9.506-2.646,14.994-2.646c11.563,0,20.383,3.881,26.461,11.647C720.365,153.724,723.408,163.498,723.408,175.284z
			 M674.307,174.989c0-2.966-0.836-5.489-2.502-7.565c-1.67-2.078-3.869-3.118-6.614-3.118c-4.705,0-8.673,2.229-11.906,6.678
			c-3.238,4.453-4.854,9.155-4.854,14.098c0,2.966,0.881,5.541,2.646,7.715c1.764,2.18,4.215,3.263,7.348,3.263
			c4.709,0,8.533-2.222,11.471-6.675C672.836,184.931,674.307,180.137,674.307,174.989z"/>
		<path fill="#FE4B75" d="M311.932,270.378c0,1.063-0.243,2.184-0.721,3.355c-0.481,1.175-1.042,2.238-1.678,3.2
			c-0.644,0.958-1.366,2.212-2.161,3.753c-0.798,1.548-1.358,2.696-1.679,3.439c-2.023,4.583-3.995,9.167-5.911,13.75
			c-1.922,4.583-3.335,9.139-4.238,13.667c-0.909,4.526-1.357,9.136-1.357,13.828c0,3.302,0.316,5.965,0.958,7.993
			c1.064,3.403,2.82,5.108,5.273,5.108c0.532,0,1.329-0.264,2.399-0.795c1.062-0.533,1.972-0.803,2.714-0.803
			c0.749,0,1.414,0.377,1.999,1.123c0.586,0.746,0.879,1.865,0.879,3.356c0,6.712-2.797,13.185-8.392,19.418
			c-5.594,6.234-11.75,9.355-18.465,9.355c-5.221,0-9.166-2.4-11.827-7.189c-2.134-3.842-3.194-8.586-3.194-14.229
			c0-3.842,0.37-7.779,1.116-11.832c0.744-4.043,1.807-8.312,3.197-12.788c0.64-2.447,1.329-4.578,2.078-6.393
			c0.105-0.322,1.063-2.344,2.876-6.075l3.036-6.072l1.601-3.2l0.799-1.437c0.104-0.321,0.268-0.611,0.48-0.878
			c0.212-0.267,0.37-0.508,0.476-0.722c-4.152,3.73-7.988,8.419-11.504,14.065c-2.237,3.732-4.961,8.979-8.155,15.745
			c-3.198,6.771-5.861,11.965-7.995,15.592c-5.219,8.736-9.428,13.104-12.625,13.104c-1.494,0-2.72-0.638-3.678-1.916
			c-0.426-0.748-0.638-2.025-0.638-3.845c0-2.977,0.095-5.645,0.281-7.987c0.663-8.314,0.996-12.787,0.996-13.426
			c0-2.983-0.083-6.926-0.244-11.829c-0.155-4.897-0.241-7.938-0.241-9.11v-4.636l0.483-4.8c-1.602,3.208-3.25,7.641-4.958,13.295
			c-1.062,3.417-2.266,7.798-3.595,13.135c-1.333,5.339-2.585,10.303-3.756,14.889c-1.494,5.125-3.195,9.666-5.118,13.615
			c-4.793,9.93-11.618,17.772-20.458,23.543c-8.847,5.766-18.759,8.646-29.735,8.646c-10.121,0-18.648-2.938-25.574-8.813
			c-7.351-6.195-11.03-14.254-11.03-24.188c0-10.786,4.261-19.707,12.79-26.758c7.994-6.623,17.423-9.933,28.292-9.933
			c3.197,0,5.701,0.267,7.516,0.798c3.194,0.959,4.796,2.556,4.796,4.794c0,0.747-0.162,1.336-0.482,1.758
			c-0.32,0.429-1.276,1.229-2.875,2.4c-1.602,1.171-2.398,2.822-2.398,4.955c0,2.345,0.931,4.286,2.797,5.837
			c1.861,1.543,4.023,2.313,6.47,2.313c5.542,0,10.393-2.77,14.545-8.311c1.814-2.455,4.693-7.678,8.634-15.667
			c3.203-7.249,5.594-12.574,7.194-15.988c2.665-5.754,5.702-10.762,9.113-15.026l-3.679-1.085l-3.519-0.905l-3.672-0.728h-3.677
			c-2.457,0-4.668,0.562-6.638,1.68c-1.972,1.118-2.952,2.8-2.952,5.036c0,2.558,1.225,3.836,3.672,3.836l1.926-0.161
			c1.916,0,2.872,0.802,2.872,2.398c0,4.157-3.733,8.209-11.189,12.151c-6.716,3.515-12.68,5.271-17.903,5.271
			c-6.188,0-11.404-2.446-15.668-7.351c-4.262-4.904-6.393-10.55-6.393-16.95c0-8.628,3.89-15.927,11.672-21.895
			c7.247-5.541,15.289-8.315,24.136-8.315c5.964,0,13.8,1.999,23.502,5.998c9.691,3.994,16.833,5.994,21.415,5.994l7.353-0.48
			c1.384,0,2.585,0.377,3.602,1.12c1.006,0.746,1.517,2.027,1.517,3.835c0,0.855-0.185,1.76-0.543,2.72
			c-0.364,0.959-0.61,1.705-0.728,2.238l-1.45,4.798c-0.162,1.172-0.36,2.852-0.597,5.033c-0.238,2.188-0.36,3.812-0.36,4.875
			c0,3.412,0.055,5.968,0.163,7.672c0.53,8.634,0.794,13.005,0.794,13.11c2.882-5.116,5.758-10.229,8.637-15.346
			c3.513-5.438,7.695-10.631,12.548-15.586c4.847-4.957,9.512-8.977,13.986-12.069c6.281-4.369,11.877-6.557,16.779-6.557
			c1.493,0,2.743,0.399,3.76,1.199C311.422,267.902,311.932,268.995,311.932,270.378z"/>
		<path fill="#FE4B75" d="M385.783,313.231v2.4l-9.91,46.114c-2.349,10.781-7.648,19.828-15.909,27.139
			c-8.261,7.314-17.877,10.969-28.851,10.969c-6.287,0-11.3-1.276-15.025-3.829c-4.476-3.103-6.713-7.628-6.713-13.593
			c0-3.309,1.009-6.184,3.035-8.631c1.603-2.031,4.099-3.996,7.514-5.916c0.853,2.877,2.265,5.222,4.237,7.037
			c1.972,1.812,4.395,2.709,7.271,2.709c4.792,0,8.953-1.812,12.472-5.436c3.087-3.195,5.379-7.242,6.868-12.146l-4.949,3.195
			l-4.962,2.559c-3.091,1.39-6.446,2.078-10.071,2.078c-4.477,0-8.147-1.166-11.03-3.521c-2.874-2.338-4.312-5.752-4.312-10.228
			c0-2.026,0.425-4.901,1.275-8.631c0.854-3.729,1.441-6.443,1.764-8.154c1.168-5.008,2.02-8.873,2.554-11.588
			c0.532-2.72,0.796-4.449,0.796-5.198c0-1.381-0.294-2.477-0.878-3.276c-0.586-0.801-1.518-1.73-2.795-2.799
			c3.094-2.658,6.525-4.873,10.31-6.634c3.783-1.758,7.539-2.634,11.27-2.634c2.343,0,4.474,0.692,6.392,2.074
			c1.922,1.386,2.881,3.198,2.881,5.434c0,2.349-0.35,4.854-1.04,7.516c-0.693,2.664-1.253,4.851-1.68,6.557
			c-0.743,3.093-1.279,5.493-1.595,7.19c-0.747,3.416-1.12,5.76-1.12,7.033c0,1.276,0.397,2.37,1.197,3.276
			c0.799,0.91,1.842,1.357,3.122,1.357c2.664,0,4.739-1.281,6.228-3.847c0.959-1.608,1.764-4.071,2.4-7.387
			c0.96-3.206,1.6-5.562,1.916-7.058c0.749-2.892,1.12-5.299,1.12-7.226c0-2.353-1.12-4.28-3.357-5.778
			c2.648-2.567,5.829-4.729,9.541-6.499c3.71-1.764,7.263-2.646,10.651-2.646c2.654,0,4.877,0.691,6.681,2.083
			C384.879,308.696,385.783,310.67,385.783,313.231z"/>
		<path fill="#FE4B75" d="M420.188,331.688c10.453-7.274,21.02-11.172,30.142-14.109c9.108-2.944,19.549-4.412,31.311-4.412
			c14.308,0,26.761,3.137,37.339,9.41c12.94,7.644,19.409,18.129,19.409,31.459c0,10.779-5.582,19.211-16.764,25.285
			c-9.016,4.901-19.504,7.352-31.453,7.352c-8.633,0-16.967-1.221-24.997-3.676c-8.042-2.443-16.765-6.027-26.17-10.732l-0.59,4.117
			c0,6.666,6.269,14.019,18.823,22.053c19.002,12.156,30.578,20.097,34.694,23.82c12.738,11.367,19.105,24.308,19.105,38.81
			c0,13.133-3.582,25.243-10.729,36.312c-7.151,11.074-16.52,19.355-28.088,24.846c-11.562,5.49-22.679,9.41-33.369,11.763
			c-10.68,2.354-22.396,3.528-35.132,3.528c-23.326,0-43.42-4.606-60.274-13.813c-20.773-11.377-31.168-27.834-31.168-49.4
			c0-16.268,6.66-29.893,19.992-40.869c12.35-10.188,26.86-15.291,43.519-15.291c8.428,0,17.537,1.865,27.34,5.591
			c11.963,4.508,17.944,9.896,17.944,16.17c0,2.352-0.989,4.221-2.945,5.586c-0.195,0.196-2.354,1.373-6.469,3.528
			c-4.118,2.162-6.178,5.785-6.178,10.882c0,4.901,2.008,8.815,6.034,11.762c4.014,2.938,8.673,4.41,13.959,4.41
			c5.491,0,10.637-1.666,15.438-5.002c4.8-3.332,7.206-7.644,7.206-12.937c0-7.447-4.854-14.996-14.552-22.643
			c-9.7-7.646-19.169-15.09-28.383-22.349c-10.188-9.604-15.281-20.09-15.281-31.461c0-5.483,1.313-11.114,3.524-17.053
			c1.688-4.531,2.906-9.096,7.582-15.738C406.515,341.046,410.685,338.298,420.188,331.688z M494.285,353.151
			c0-1.562-0.695-3.039-2.062-4.41c-1.371-1.369-3.34-2.451-5.885-3.23c-2.549-0.785-5.188-1.18-7.938-1.18
			c-7.838,0-14.412,2.352-19.698,7.055c4.708,2.158,9.457,4.07,14.265,5.738c4.798,1.664,8.967,2.494,12.494,2.494
			c2.15,0,4.014-0.484,5.584-1.474C493.203,356.386,494.285,354.722,494.285,353.151z"/>
		<path fill="#FE4B75" d="M665.982,476.938c0,7.055-6.179,13.819-18.527,20.286c-11.18,5.884-21.072,8.82-29.703,8.82
			c-7.256,0-13.717-2.156-19.402-6.465c-5.686-4.312-8.526-10.103-8.526-17.351c0-4.51,0.785-9.803,2.354-15.881
			c3.914-15.291,5.881-24.301,5.881-27.047c0-2.354-0.784-4.312-2.352-5.881c-1.57-1.566-3.438-2.357-5.586-2.357
			c-5.492,0-9.701,2.648-12.646,7.945c-2.157,3.726-3.819,8.916-4.995,15.576c-2.154,9.998-4.267,20.191-6.322,30.582
			c-2.062,10.391-9.264,16.369-21.613,17.938c-17.049,2.355-27.342,4.896-30.865,7.646l34.104-158.236l0.877-6.168
			c0-2.146-0.385-3.959-1.17-5.428c-0.785-1.465-2.547-2.891-5.303-4.262c5.655-5.085,11.893-9.189,18.719-12.323
			c6.828-3.134,13.656-4.699,20.483-4.699c4.867,0,8.916,1.418,12.136,4.248c3.223,2.838,4.828,6.6,4.828,11.282v2.928
			l-14.996,67.988c3.328-1.57,6.569-3.433,9.696-5.592c5.097-3.33,8.429-5.392,10.009-6.175c6.651-3.135,13.317-4.702,19.989-4.702
			c7.449,0,13.818,2.014,19.105,6.026c5.301,4.021,7.938,9.656,7.938,16.906c0,3.924-0.575,8.229-1.764,12.936
			c-1.172,4.703-2.354,9.562-3.525,14.56c-1.172,4.994-2.057,9.063-2.647,12.201c-1.375,6.271-2.06,10.686-2.06,13.229
			c0,2.748,0.785,4.996,2.355,6.765c1.566,1.766,3.822,2.639,6.768,2.639c1.568,0,3.679-0.529,6.316-1.611
			c2.646-1.078,4.461-1.614,5.439-1.614c1.366,0,2.549,0.487,3.522,1.471C665.479,474.093,665.982,475.366,665.982,476.938z"/>
		<path fill="#FE4B75" d="M787.475,464.882c0,5.291-3.92,11.467-11.758,18.521c-6.469,5.885-12.838,10.396-19.115,13.53
			c-6.276,3.136-12.596,5.629-18.965,7.498c-6.371,1.855-12.787,2.791-19.258,2.791c-14.895,0-27.104-4.457-36.613-13.379
			c-9.504-8.922-14.252-20.729-14.252-35.434c0-18.619,8.029-34.734,24.105-48.359c16.072-13.627,33.617-20.438,52.631-20.438
			c10.191,0,19.016,2.448,26.463,7.352c8.623,5.688,12.941,13.43,12.941,23.23c0,12.938-7.642,23.422-22.938,31.455
			c-12.94,6.862-26.463,10.297-40.574,10.297c0,4.112,1.414,7.395,4.259,9.848c2.844,2.455,6.418,3.672,10.739,3.672
			c6.855,0,15.58-2.887,26.166-8.668c10.588-5.783,16.855-8.674,18.82-8.674c1.959,0,3.67,0.639,5.137,1.912
			C786.742,461.31,787.475,462.925,787.475,464.882z M746.604,421.661c0-1.57-0.688-3.041-2.057-4.414
			c-1.379-1.365-2.945-2.059-4.707-2.059c-5.096,0-9.404,3.432-12.93,10.29c-1.572,3.14-2.846,6.375-3.82,9.705
			c5.48,0,10.287-0.885,14.396-2.646C743.568,429.993,746.604,426.366,746.604,421.661z"/>
		<path fill="#FE4B75" d="M867.951,334.628v4.113l-27.639,124.082l-0.291,3.815c0,2.357,0.772,4.318,2.346,5.884
			c1.562,1.569,3.625,2.35,6.17,2.35c1.766,0,3.924-0.582,6.469-1.76c2.551-1.181,4.506-1.769,5.883-1.769
			c1.57,0,2.842,0.588,3.82,1.769c0.98,1.178,1.475,2.455,1.475,3.823c0,7.255-6.379,14.113-19.112,20.584
			c-11.164,5.687-21.072,8.521-29.691,8.521c-7.651,0-14.164-2.203-19.555-6.605c-5.398-4.395-8.092-10.313-8.092-17.762
			l0.297-4.104l27.645-127.996l0.283-2.935c0-2.153-0.334-4.059-1.025-5.725c-0.686-1.668-2.5-2.889-5.434-3.674
			c4.299-4.893,10.139-9.051,17.486-12.475c7.354-3.424,14.266-5.137,20.731-5.137c4.699,0,8.918,1.372,12.646,4.116
			C866.088,326.496,867.951,330.123,867.951,334.628z"/>
		<path fill="#FE4B75" d="M947.402,334.628v4.113l-27.636,124.082l-0.299,3.815c0,2.357,0.787,4.318,2.357,5.884
			c1.565,1.569,3.625,2.35,6.172,2.35c1.768,0,3.914-0.582,6.469-1.76c2.539-1.181,4.506-1.769,5.881-1.769
			c1.572,0,2.832,0.588,3.82,1.769c0.979,1.178,1.471,2.455,1.471,3.823c0,7.255-6.371,14.113-19.106,20.584
			c-11.181,5.687-21.08,8.521-29.701,8.521c-7.646,0-14.164-2.203-19.557-6.605c-5.392-4.395-8.08-10.313-8.08-17.762l0.293-4.104
			l27.639-127.996l0.295-2.935c0-2.153-0.346-4.059-1.029-5.725c-0.69-1.668-2.496-2.889-5.438-3.674
			c4.307-4.893,10.146-9.051,17.492-12.475c7.35-3.424,14.258-5.137,20.727-5.137c4.709,0,8.92,1.372,12.646,4.116
			C945.537,326.496,947.402,330.123,947.402,334.628z"/>
	</g>
</g>
</svg>
